<?xml version="1.0" encoding="utf-8"?>
<!-- Generator: Adobe Illustrator 23.0.6, SVG Export Plug-In . SVG Version: 6.00 Build 0)  -->
<svg version="1.1" id="Layer_1" xmlns="http://www.w3.org/2000/svg" xmlns:xlink="http://www.w3.org/1999/xlink" x="0px" y="0px"
	 viewBox="0 0 511 511" style="enable-background:new 0 0 511 511;" xml:space="preserve">
<style type="text/css">
	.st0{fill:#FFFFFF;}
</style>
<path class="st0" d="M499.2,64.1c-3-1.8-6.7-2-9.9-0.5l-81.2,38.2c-28.6,13.5-47.8,41.3-50.3,72.8l-2.1,25.9l-42.1,69.9v-29.8
	c0-0.1-0.1-0.2-0.1-0.3c0-1-0.2-2-0.5-3l-19.6-58.7l40-79.9c1.8-3.6,1.3-7.8-1-11L269.6,4c-3.8-4.6-10.6-5.3-15.3-1.5
	c-0.5,0.4-1,0.9-1.5,1.5l-62.8,83.8c-2.4,3.2-2.8,7.4-1,11l40,79.9l-19.6,58.7c-0.3,1-0.5,2-0.5,3v0.3v41.8l-65.2-99
	c-0.1-0.1-0.2-0.2-0.3-0.3c-0.6-0.9-1.4-1.6-2.2-2.3c-0.2-0.1-0.4-0.3-0.6-0.4c-0.2-0.1-0.2-0.2-0.4-0.3l-38.4-22.2l-15.9-24.2
	l-23-35c-2.6-4-7.7-5.7-12.2-4.1L10,108.9c-5.4,1.9-8.3,7.9-6.4,13.4c0.3,0.8,0.7,1.6,1.1,2.3l28.8,43.7l15.9,24.2l5.2,44
	c0,0.1,0.1,0.3,0.1,0.4c0,0.2,0.1,0.4,0.2,0.7c0.2,1.1,0.7,2.2,1.2,3.1c0.1,0.1,0.1,0.2,0.1,0.3c0.1,0.1,155.7,236,156.4,236.6
	c7.7,20.1,26.9,33.4,48.5,33.4c4.3,0,8.5-0.5,12.7-1.5c13.5-3.3,25.1-11.9,32.2-23.8l139.2-231l22-13.9c11.6-7.3,21.2-17.3,28.3-29
	c9-14.9,13.4-32.1,12.6-49.5l-4.1-89.6C504,69.1,502.2,65.9,499.2,64.1z M423.4,250.7l-16.2,26.9l-53.8-32.5l16.2-26.9L423.4,250.7z
	 M229.9,409.3V251h62.8v54.1L229.9,409.3z M247.9,188.2h26.8l14,41.9H234L247.9,188.2z M261.3,114.9c-5.8,0-10.5-4.7-10.5-10.5
	S255.5,94,261.3,94c5.8,0,10.5,4.7,10.5,10.5S267.1,114.9,261.3,114.9z M261.3,27.7l50.6,67.4l-36.1,72.2h-4v-33.3
	c16.4-5.8,24.9-23.7,19.1-40.1c-5.8-16.4-23.7-24.9-40.1-19.1c-16.4,5.8-24.9,23.7-19.1,40.1c3.2,8.9,10.2,16,19.1,19.1v33.3h-4
	l-36.1-72.2L261.3,27.7z M115.1,189.7l-3.1,2l-38.6,25.4l-3.5-29.7c-0.2-1.6-0.8-3.2-1.7-4.5l-11.5-17.5l17.5-11.5l11.5,17.5
	c0.9,1.4,2.1,2.5,3.5,3.3L115.1,189.7z M49.9,117l12.8,19.4l-17.5,11.5l-15.7-23.8L49.9,117z M105.8,220.9l26.2-17.3l77,116.8v114.2
	L79.6,238.2L105.8,220.9z M288.2,474.8c-8.9,14.9-28.2,19.8-43.1,10.9c-14.9-8.9-19.8-28.2-10.9-43.1c0.1-0.1,0.1-0.2,0.2-0.3
	l79.1-131.1h0.2v-0.3l28.9-47.9l26.9,16.2l26.9,16.2L288.2,474.8z M477.8,200.9c-5.4,8.9-12.8,16.5-21.6,22.1l-18.6,11.8l-30.4-18.3
	l-30.4-18.3l1.7-22c1.9-24,16.6-45.2,38.4-55.5l67-31.5l1.3,29.2c-1-0.1-2.1-0.1-3.1,0.1l-25.4,6.3c-23.6,5.8-41.9,24.4-47.1,48.2
	c-1.3,5.6,2.3,11.2,7.9,12.5c0.8,0.2,1.5,0.3,2.3,0.3c4.9,0,9.1-3.4,10.2-8.2c3.5-15.9,15.8-28.5,31.7-32.4l24.5-6.1l1.1,24.1
	C488,176.4,484.6,189.6,477.8,200.9z"/>
</svg>
